<?xml version="1.0" encoding="UTF-8" standalone="no"?>
<!-- Created with Inkscape (http://www.inkscape.org/) -->

<svg
   width="55mm"
   height="55mm"
   viewBox="0 0 207.87401 207.87401"
   version="1.1"
   id="svg5"
   inkscape:version="1.1.2 (b8e25be833, 2022-02-05)"
   sodipodi:docname="IconAba.svg"
   xmlns:inkscape="http://www.inkscape.org/namespaces/inkscape"
   xmlns:sodipodi="http://sodipodi.sourceforge.net/DTD/sodipodi-0.dtd"
   xmlns="http://www.w3.org/2000/svg"
   xmlns:svg="http://www.w3.org/2000/svg">
  <sodipodi:namedview
     id="namedview7"
     pagecolor="#ffffff"
     bordercolor="#666666"
     borderopacity="1.0"
     inkscape:pageshadow="2"
     inkscape:pageopacity="0.0"
     inkscape:pagecheckerboard="0"
     inkscape:document-units="mm"
     showgrid="false"
     inkscape:zoom="2"
     inkscape:cx="2.75"
     inkscape:cy="141.5"
     inkscape:window-width="1920"
     inkscape:window-height="1017"
     inkscape:window-x="-8"
     inkscape:window-y="-8"
     inkscape:window-maximized="1"
     inkscape:current-layer="layer1" />
  <defs
     id="defs2" />
  <g
     inkscape:label="Camada 1"
     inkscape:groupmode="layer"
     id="layer1">
    <rect
       style="opacity:1;fill:#000118;fill-opacity:1;stroke:#000117;stroke-width:3.66486;stroke-miterlimit:4;stroke-dasharray:none;stroke-opacity:1"
       id="rect846"
       width="204.20917"
       height="204.20857"
       x="1.8320128"
       y="1.83243" />
    <path
       style="fill:#22d4fd;fill-opacity:1;stroke:#22d4fd;stroke-width:0.216648;stroke-linecap:butt;stroke-linejoin:miter;stroke-miterlimit:4;stroke-dasharray:none;stroke-opacity:1"
       d="m 42.319801,107.59808 c -8.296543,-1.87297 -14.317319,-1.56274 -18.578725,0.20528 -7.841378,3.35315 -10.360095,14.28643 -8.498204,21.05581 1.734817,5.94353 6.207565,11.0566 11.324076,14.83515 6.822286,4.93535 14.197885,7.29907 21.863845,8.40117 5.839293,0.8234 11.716726,0.19801 11.558278,-0.0308 -3.053251,-1.94216 -5.821331,-3.89693 -8.330658,-5.98381 -4.369644,-3.63397 -7.953638,-7.66841 -10.88734,-12.7322 -3.159329,-5.52209 -5.031717,-11.61304 -3.426946,-17.25602 0.880471,-2.95979 2.643398,-5.62374 4.975674,-8.49459 z"
       id="path1121"
       sodipodi:nodetypes="ccccccsccc"
       inkscape:export-filename="C:\Users\darkz\Desktop\Cloud_Teste.svg"
       inkscape:export-xdpi="96"
       inkscape:export-ydpi="96" />
    <path
       style="fill:#22d4fd;fill-opacity:1;stroke:#22d4fd;stroke-width:0.216648;stroke-linecap:butt;stroke-linejoin:miter;stroke-miterlimit:4;stroke-dasharray:none;stroke-opacity:1"
       d="M 7.6869563,111.52142 C 8.5664362,93.442066 16.328737,84.273333 25.961091,80.713959 c 6.754347,-2.495839 14.742217,-2.141982 22.882704,0.112954 26.688245,8.436504 42.290582,30.766157 61.344885,46.862227 9.38148,7.88048 18.76499,14.17736 27.82478,18.46374 15.96927,7.55582 32.4648,6.53153 48.42491,-0.0359 -16.49482,10.20034 -32.39014,13.90057 -47.89509,12.5174 C 100.88873,156.33819 87.11971,131.83953 62.01874,111.64743 49.814017,102.36146 38.59153,94.05309 24.374691,98.251578 18.447689,100.05762 12.506515,104.01259 7.6869563,111.52143 Z"
       id="path3189"
       sodipodi:nodetypes="csccsccccc"
       inkscape:export-filename="C:\Users\darkz\Desktop\Cloud_Teste.svg"
       inkscape:export-xdpi="96"
       inkscape:export-ydpi="96" />
    <path
       style="fill:#ffffff;fill-opacity:1;stroke:#fffffb;stroke-width:0.216648;stroke-linecap:butt;stroke-linejoin:miter;stroke-miterlimit:4;stroke-dasharray:none;stroke-opacity:1"
       d="m 68.459516,56.955157 c 0,0 4.027497,-4.275467 6.012494,-6.084913 2.729592,-2.487388 5.423084,-4.570965 8.085085,-6.290848 9.04137,-5.841386 17.687985,-7.197959 26.163165,-6.514174 9.59602,0.774242 19.92008,4.386019 28.43536,12.465383 4.53025,4.298579 8.58889,9.848344 11.71311,16.921621 0.11757,0.202618 0.13506,0.332612 0.10544,0.435414 -0.0367,0.127201 -0.17419,0.212746 -0.38349,0.342701 -2.9221,1.813393 -6.03699,3.711003 -12.16991,6.384482 -0.39084,0.182212 -0.41907,0.06202 -0.555,-0.249073 -2.1266,-4.718735 -4.62922,-8.55557 -7.34161,-11.707581 -9.64087,-10.118003 -24.07592,-16.855006 -36.996434,-15.600383 -7.742647,1.288184 -13.695891,3.734442 -19.707628,7.652244 -1.827309,1.192795 -3.360582,2.245127 -3.360582,2.245127 z"
       id="path4820"
       sodipodi:nodetypes="csssscsccccccc"
       inkscape:export-filename="C:\Users\darkz\Desktop\Cloud_Teste.svg"
       inkscape:export-xdpi="96"
       inkscape:export-ydpi="96" />
    <path
       style="fill:#ffffff;fill-opacity:1;stroke:#fffffb;stroke-width:0.216648;stroke-linecap:butt;stroke-linejoin:miter;stroke-miterlimit:4;stroke-dasharray:none;stroke-opacity:1"
       d="m 42.540998,69.704172 c 12.199883,-0.344043 23.525999,3.452833 34.352922,10.074281 13.434339,9.002116 24.9683,21.219997 36.76603,32.358737 14.57175,13.75736 29.5459,25.86848 49.0016,28.24104 10.99803,1.14379 23.28695,-1.91763 37.42081,-12.55763 -9.89986,3.17219 -20.21563,4.07068 -31.40394,0.19772 -13.44776,-5.744 -24.49278,-15.07398 -34.9873,-25.0082 C 118.55275,88.680462 104.56096,73.093748 86.157652,65.201489 73.002302,59.844088 58.781965,59.766089 42.540998,69.704172 Z"
       id="path13151"
       sodipodi:nodetypes="ccscccscc"
       inkscape:export-filename="C:\Users\darkz\Desktop\Cloud_Teste.svg"
       inkscape:export-xdpi="96"
       inkscape:export-ydpi="96" />
    <path
       style="fill:#ffffff;fill-opacity:1;stroke:#fffffb;stroke-width:0.216648;stroke-linecap:butt;stroke-linejoin:miter;stroke-miterlimit:4;stroke-dasharray:none;stroke-opacity:1"
       d="m 137.34317,84.070558 c 2.93528,-1.641219 5.51406,-2.814565 7.93212,-3.712112 6.69924,-2.529307 14.08935,-3.582916 21.30575,-3.170259 9.17695,0.668956 18.56246,3.788245 24.97524,9.556036 7.84949,7.379663 9.12972,18.191067 8.51721,27.620167 -0.059,0.90868 -0.0926,1.80405 -0.18264,2.6829 -0.15624,1.26806 0.0795,1.60551 -1.06954,2.04628 -4.81285,1.8438 -10.61465,2.89639 -16.42333,3.94352 -1.26746,0.23053 -1.19538,0.39526 -1.03571,-0.80269 0.50264,-3.77586 0.7236,-7.331 0.64015,-10.64749 -0.19076,-17.191248 -13.49511,-28.718338 -26.92303,-29.18908 -5.14859,-0.102778 -10.07481,-0.385126 -17.73622,1.672728 z"
       id="path14497"
       sodipodi:nodetypes="ccccsccccccc"
       inkscape:export-filename="C:\Users\darkz\Desktop\Cloud_Teste.svg"
       inkscape:export-xdpi="96"
       inkscape:export-ydpi="96" />
  </g>
</svg>
