<?xml version="1.0" encoding="UTF-8" standalone="no"?>
<!-- Created with Inkscape (http://www.inkscape.org/) -->

<svg
   width="3840"
   height="2160"
   viewBox="0 0 3840 2160"
   version="1.1"
   id="svg5"
   inkscape:version="1.1.2 (b8e25be833, 2022-02-05)"
   sodipodi:docname="Cloud.svg"
   inkscape:export-filename="C:\Users\darkz\Desktop\Cloud.svg"
   inkscape:export-xdpi="96"
   inkscape:export-ydpi="96"
   xmlns:inkscape="http://www.inkscape.org/namespaces/inkscape"
   xmlns:sodipodi="http://sodipodi.sourceforge.net/DTD/sodipodi-0.dtd"
   xmlns="http://www.w3.org/2000/svg"
   xmlns:svg="http://www.w3.org/2000/svg">
  <sodipodi:namedview
     id="namedview7"
     pagecolor="#ffffff"
     bordercolor="#666666"
     borderopacity="1.0"
     inkscape:pageshadow="2"
     inkscape:pageopacity="0.0"
     inkscape:pagecheckerboard="0"
     inkscape:document-units="px"
     showgrid="false"
     inkscape:zoom="0.15768229"
     inkscape:cx="263.18744"
     inkscape:cy="906.88685"
     inkscape:window-width="1920"
     inkscape:window-height="1017"
     inkscape:window-x="-8"
     inkscape:window-y="-8"
     inkscape:window-maximized="1"
     inkscape:current-layer="layer1" />
  <defs
     id="defs2" />
  <g
     inkscape:label="Camada 1"
     inkscape:groupmode="layer"
     id="layer1">
    <path
       style="fill:#22d4fd;fill-opacity:1;stroke:#22d4fd;stroke-width:3.753;stroke-linecap:butt;stroke-linejoin:miter;stroke-miterlimit:4;stroke-dasharray:none;stroke-opacity:1"
       d="m 864.33044,1247.8669 c -143.72098,-32.4455 -248.01947,-27.0713 -321.83972,3.556 -135.83561,58.0867 -179.4678,247.4838 -147.21435,364.7497 30.05216,102.9598 107.53371,191.5336 196.16775,256.9894 118.18157,85.495 245.94979,126.4418 378.74663,145.5335 101.15465,14.2637 202.96935,3.43 200.22425,-0.5334 -52.8918,-33.6441 -100.843,-67.5066 -144.3122,-103.6576 -75.69501,-62.9513 -137.78091,-132.8398 -188.60093,-220.5599 -54.72909,-95.6591 -87.16422,-201.1727 -59.36484,-298.9259 15.25247,-51.2726 45.79162,-97.42 86.19341,-147.1518 z"
       id="path1121"
       sodipodi:nodetypes="ccccccsccc"
       inkscape:export-filename="C:\Users\darkz\Desktop\Cloud_Teste.svg"
       inkscape:export-xdpi="96"
       inkscape:export-ydpi="96" />
    <path
       style="fill:#22d4fd;fill-opacity:1;stroke:#22d4fd;stroke-width:3.753;stroke-linecap:butt;stroke-linejoin:miter;stroke-miterlimit:4;stroke-dasharray:none;stroke-opacity:1"
       d="m 264.38548,1315.8309 c 15.23487,-313.1887 149.70149,-472.01866 316.56299,-533.67761 117.00521,-43.23543 255.3789,-37.10558 396.39711,1.95671 462.32052,146.14548 732.59922,532.962 1062.67682,811.7941 162.5161,136.5135 325.0659,245.5946 482.0092,319.8474 276.6354,130.8895 562.3872,113.1458 838.8649,-0.6215 -285.7403,176.7003 -561.0945,240.7995 -829.6874,216.8386 -652.2893,-39.7771 -890.8105,-464.1673 -1325.634,-813.9551 -211.42297,-160.8608 -405.82967,-304.7867 -652.10826,-232.0563 -102.67267,31.286 -205.5922,99.798 -289.08136,229.8737 z"
       id="path3189"
       sodipodi:nodetypes="csccsccccc"
       inkscape:export-filename="C:\Users\darkz\Desktop\Cloud_Teste.svg"
       inkscape:export-xdpi="96"
       inkscape:export-ydpi="96" />
    <path
       style="fill:#ffffff;fill-opacity:1;stroke:#fffffb;stroke-width:3.753;stroke-linecap:butt;stroke-linejoin:miter;stroke-miterlimit:4;stroke-dasharray:none;stroke-opacity:1"
       d="m 1317.1489,370.57951 c 0,0 69.7682,-74.06384 104.1536,-105.40893 47.2854,-43.08896 93.9445,-79.18275 140.0584,-108.97633 156.6236,-101.190324 306.4089,-124.690192 453.2239,-112.84496 166.232,13.412154 345.0755,75.97899 492.5858,215.93781 78.4777,74.46418 148.7856,170.60282 202.9071,293.13317 2.0363,3.50994 2.3391,5.76188 1.8261,7.54268 -0.6358,2.20346 -3.0177,3.68539 -6.6434,5.93659 -50.6191,31.41341 -104.5789,64.28573 -210.8193,110.59841 -6.7701,3.15641 -7.2595,1.0743 -9.6138,-4.31473 -36.8389,-81.74263 -80.192,-148.20812 -127.179,-202.81039 -167.0083,-175.27417 -417.067,-291.97924 -640.8894,-270.24544 -134.1256,22.31526 -237.2538,64.69177 -341.3952,132.55978 -31.6542,20.6628 -58.2148,38.89234 -58.2148,38.89234 z"
       id="path4820"
       sodipodi:nodetypes="csssscsccccccc"
       inkscape:export-filename="C:\Users\darkz\Desktop\Cloud_Teste.svg"
       inkscape:export-xdpi="96"
       inkscape:export-ydpi="96" />
    <path
       style="fill:#ffffff;fill-opacity:1;stroke:#fffffb;stroke-width:3.753;stroke-linecap:butt;stroke-linejoin:miter;stroke-miterlimit:4;stroke-dasharray:none;stroke-opacity:1"
       d="m 868.1625,591.43067 c 211.3378,-5.95979 407.5403,59.81343 595.095,174.51686 232.7236,155.94359 432.5257,367.59397 636.8983,560.55037 252.4265,238.3187 511.8234,448.1195 848.8541,489.2195 190.5192,19.8137 403.3998,-33.2193 648.2412,-217.536 -171.4958,54.9521 -350.1952,70.5164 -544.0112,3.4252 C 2820.2851,1502.1034 2628.952,1340.4802 2447.1556,1168.3895 2184.9133,920.157 1942.534,650.14839 1623.733,513.4308 1395.8428,420.62447 1149.5041,419.27331 868.1625,591.43067 Z"
       id="path13151"
       sodipodi:nodetypes="ccscccscc"
       inkscape:export-filename="C:\Users\darkz\Desktop\Cloud_Teste.svg"
       inkscape:export-xdpi="96"
       inkscape:export-ydpi="96" />
    <path
       style="fill:#ffffff;fill-opacity:1;stroke:#fffffb;stroke-width:3.753;stroke-linecap:butt;stroke-linejoin:miter;stroke-miterlimit:4;stroke-dasharray:none;stroke-opacity:1"
       d="m 2510.42,840.2996 c 50.8478,-28.43084 95.5201,-48.75671 137.4081,-64.30493 116.0513,-43.81517 244.0702,-62.06681 369.0795,-54.91832 158.9726,11.58832 321.5577,65.62376 432.6461,165.53911 135.9762,127.83794 158.1536,315.12384 147.5437,478.46424 -1.022,15.741 -1.6047,31.2515 -3.1643,46.4758 -2.7058,21.9666 1.3791,27.8123 -18.5272,35.4476 -83.3732,31.9403 -183.8774,50.1743 -284.5013,68.3137 -21.956,3.9935 -20.7081,6.847 -17.9417,-13.9051 8.7072,-65.409 12.5348,-126.9948 11.0889,-184.4464 -3.3045,-297.8039 -233.7753,-497.48772 -466.3871,-505.64237 -89.1891,-1.78037 -174.5265,-6.67153 -307.2447,28.97667 z"
       id="path14497"
       sodipodi:nodetypes="ccccsccccccc"
       inkscape:export-filename="C:\Users\darkz\Desktop\Cloud_Teste.svg"
       inkscape:export-xdpi="96"
       inkscape:export-ydpi="96" />
  </g>
</svg>
